# xmcd CD database file
#
# Track frame offsets:
#	150
#	22745
#	43240
#	67435
#	82312
#	110962
#	129192
#	152445
#	181110
#	202752
#	216360
#	236305
#	261265
#	285437
#	303782
#	329057
#
# Disc length: 4667 seconds
#
# Revision: 0
# Processed by: cddbd v1.5.2PL0 Copyright (c) Steve Scherf et al.
# Submitted via: CDex 1.70beta2
#
DISCID=e4123910
DTITLE=Keiko Lee 李敬子 - Keiko Lee Sings Super Standards
DYEAR=2002
DGENRE=Jazz
TTITLE0=My Way
TTITLE1=Sentimental Journey
TTITLE2=Quiet Nights of Quiet Stars (Corcovado)
TTITLE3=Tea for Two
TTITLE4=Misty
TTITLE5=Route 66
TTITLE6=This Masquerade
TTITLE7=Closer to One
TTITLE8=Feelings
TTITLE9=La Vie En Rose
TTITLE10=Honeysuckle Rose
TTITLE11=Stardust
TTITLE12=Sunny
TTITLE13=Johnny Guitar
TTITLE14=My One and Only Love
TTITLE15=I'll be Seeing You
EXTD=YEAR: 2002
EXTT0=
EXTT1=
EXTT2=
EXTT3=
EXTT4=
EXTT5=
EXTT6=
EXTT7=
EXTT8=
EXTT9=
EXTT10=
EXTT11=
EXTT12=
EXTT13=
EXTT14=
EXTT15=
PLAYORDER=
